<svg width="11" height="11" viewBox="0 0 11 11" fill="none" xmlns="http://www.w3.org/2000/svg">
<path d="M5.5 0C2.46262 0 0 2.46262 0 5.5C0 8.53738 2.46262 11 5.5 11C8.53738 11 11 8.53738 11 5.5C11 2.46262 8.53738 0 5.5 0ZM9.21211 6.27354H5.5C5.07269 6.27354 4.72656 5.92741 4.72656 5.5001V1.7876C4.97717 1.74394 5.23527 1.71885 5.5 1.71885C5.76473 1.71885 6.02283 1.74394 6.27344 1.7876V4.72656H9.21221C9.25617 4.97717 9.28126 5.23527 9.28126 5.5C9.28126 5.76473 9.25617 6.02283 9.21221 6.27344L9.21211 6.27354Z" fill="#999999"/>
</svg>
